HIERARCHY
ROOT Hips
{
	OFFSET 0.00000 0.00000 0.00000
	CHANNELS 6 Xposition Yposition Zposition Zrotation Yrotation Xrotation 
	JOINT LHipJoint
	{
		OFFSET 0 0 0
		CHANNELS 3 Zrotation Yrotation Xrotation
		JOINT LeftUpLeg
		{
			OFFSET 1.77779 -1.88989 0.48267
			CHANNELS 3 Zrotation Yrotation Xrotation
			JOINT LeftLeg
			{
				OFFSET 2.53442 -6.96327 0.00000
				CHANNELS 3 Zrotation Yrotation Xrotation
				JOINT LeftFoot
				{
					OFFSET 2.71068 -7.44755 0.00000
					CHANNELS 3 Zrotation Yrotation Xrotation
					JOINT LeftToeBase
					{
						OFFSET 0.17992 -0.49431 2.22524
						CHANNELS 3 Zrotation Yrotation Xrotation
						End Site
						{
							OFFSET 0.00000 -0.00000 1.14687
						}
					}
				}
			}
		}
	}
	JOINT RHipJoint
	{
		OFFSET 0 0 0
		CHANNELS 3 Zrotation Yrotation Xrotation
		JOINT RightUpLeg
		{
			OFFSET -1.58469 -1.88989 0.48267
			CHANNELS 3 Zrotation Yrotation Xrotation
			JOINT RightLeg
			{
				OFFSET -2.60386 -7.15404 0.00000
				CHANNELS 3 Zrotation Yrotation Xrotation
				JOINT RightFoot
				{
					OFFSET -2.73334 -7.50979 0.00000
					CHANNELS 3 Zrotation Yrotation Xrotation
					JOINT RightToeBase
					{
						OFFSET -0.25618 -0.70384 2.21822
						CHANNELS 3 Zrotation Yrotation Xrotation
						End Site
						{
							OFFSET -0.00000 -0.00000 1.16381
						}
					}
				}
			}
		}
	}
	JOINT LowerBack
	{
		OFFSET 0 0 0
		CHANNELS 3 Zrotation Yrotation Xrotation
		JOINT Spine
		{
			OFFSET 0.03410 2.01612 -0.22230
			CHANNELS 3 Zrotation Yrotation Xrotation
			JOINT Spine1
			{
				OFFSET 0.03465 2.03012 0.00937
				CHANNELS 3 Zrotation Yrotation Xrotation
				JOINT Neck
				{
					OFFSET 0 0 0
					CHANNELS 3 Zrotation Yrotation Xrotation
					JOINT Neck1
					{
						OFFSET -0.00219 1.70459 0.20857
						CHANNELS 3 Zrotation Yrotation Xrotation
						JOINT Head
						{
							OFFSET 0.02518 1.72339 -0.22179
							CHANNELS 3 Zrotation Yrotation Xrotation
							End Site
							{
								OFFSET 0.00282 1.74122 -0.09823
							}
						}
					}
				}
				JOINT LeftShoulder
				{
					OFFSET 0 0 0
					CHANNELS 3 Zrotation Yrotation Xrotation
					JOINT LeftArm
					{
						OFFSET 3.36358 1.00547 -0.37661
						CHANNELS 3 Zrotation Yrotation Xrotation
						JOINT LeftForeArm
						{
							OFFSET 5.06507 -0.00000 0.00000
							CHANNELS 3 Zrotation Yrotation Xrotation
							JOINT LeftHand
							{
								OFFSET 3.60196 -0.00000 0.00000
								CHANNELS 3 Zrotation Yrotation Xrotation
								JOINT LeftFingerBase
								{
									OFFSET 0 0 0
									CHANNELS 3 Zrotation Yrotation Xrotation
									JOINT LeftHandIndex1
									{
										OFFSET 0.45035 -0.00000 0.00000
										CHANNELS 3 Zrotation Yrotation Xrotation
										End Site
										{
											OFFSET 0.36308 -0.00000 0.00000
										}
									}
								}
								JOINT LThumb
								{
									OFFSET 0 0 0
									CHANNELS 3 Zrotation Yrotation Xrotation
									End Site
									{
										OFFSET 0.36862 -0.00000 0.36862
									}
								}
							}
						}
					}
				}
				JOINT RightShoulder
				{
					OFFSET 0 0 0
					CHANNELS 3 Zrotation Yrotation Xrotation
					JOINT RightArm
					{
						OFFSET -3.50159 0.80383 -0.71526
						CHANNELS 3 Zrotation Yrotation Xrotation
						JOINT RightForeArm
						{
							OFFSET -5.36394 -0.00000 0.00000
							CHANNELS 3 Zrotation Yrotation Xrotation
							JOINT RightHand
							{
								OFFSET -3.58035 -0.00000 0.00000
								CHANNELS 3 Zrotation Yrotation Xrotation
								JOINT RightFingerBase
								{
									OFFSET 0 0 0
									CHANNELS 3 Zrotation Yrotation Xrotation
									JOINT RightHandIndex1
									{
										OFFSET -0.66375 -0.00000 0.00000
										CHANNELS 3 Zrotation Yrotation Xrotation
										End Site
										{
											OFFSET -0.53513 -0.00000 0.00000
										}
									}
								}
								JOINT RThumb
								{
									OFFSET 0 0 0
									CHANNELS 3 Zrotation Yrotation Xrotation
									End Site
									{
										OFFSET -0.54330 -0.00000 0.54330
									}
								}
							}
						}
					}
				}
			}
		}
	}
}
MOTION
Frames: 6
Frame Time: .0083333
-0.1717 18.0704 -31.4039 0 0 0 0 0 0 -21 0 0 0 0 0 0 0 0 0 0 0 0 0 0 21 0 0 0 0 0 0 0 0 0 0 0 0 0 0 0 0 0 0 0 0 0 0 -16 0 0 21 0 0 11 0 0 0 -8 0 0 0 0 0 0 0 0 0 0 0 0 0 0 0 0 0 0 0 0 8 0 0 0 0 0 0 0 0 0 0 0 0 0 0 0 0 0
-0.1717 18.0704 -31.4039 -6.8106 -5.5858 -1.9040 0.0000 0.0000 0.0000 -9.5515 -7.1938 -26.3145 8.2930 16.3306 53.6112 0.4241 -4.4302 -11.5854 0.1457 -2.4596 -6.7776 0.0000 0.0000 0.0000 33.9383 8.8558 -4.3804 -2.3661 -9.5902 27.6597 -0.9305 5.0574 -17.2355 -0.0871 -1.9035 5.2391 4.5382 1.3356 9.6688 2.7142 2.3195 2.1464 -0.0143 1.1208 -3.1182 -1.0525 -3.1305 -15.1266 0.9070 -4.1958 15.2961 0.0239 -1.9876 7.2218 0.0000 -0.0000 0.0000 -85.0814 7.7792 26.6987 17.5432 -27.5682 -4.3357 -0.0000 0.0000 -2.7430 28.0379 27.1452 13.6570 -7.1250 0.0000 -0.0000 -2.5209 60.1144 -0.9299 0.0000 -0.0000 0.0000 87.0685 1.2451 13.4058 -17.4412 27.4358 -4.2887 0.0000 -0.0000 -1.0643 -16.3367 20.2411 -5.7906 7.1250 -0.0000 -0.0000 7.7639 -9.1149 6.4975
-0.1707 18.0694 -31.2693 -6.9864 -5.5457 -1.7842 0.0000 0.0000 0.0000 -9.2518 -7.6154 -26.7191 7.8181 15.9838 51.9050 0.4296 -3.7935 -11.6644 0.1474 -2.4738 -6.8170 0.0000 0.0000 0.0000 34.1367 8.5178 -3.8989 -2.3021 -9.4688 27.2732 -0.9636 5.0957 -17.5452 -0.0602 -1.5826 4.3534 4.8296 1.4347 9.4565 2.5976 2.4561 2.2359 -0.3056 1.1920 -2.8852 -0.5007 -2.9680 -15.6858 0.7165 -4.0609 15.1821 -0.1208 -1.9060 7.2638 0.0000 0.0000 0.0000 -84.8668 7.6200 27.0379 17.4702 -27.4734 -4.3020 -0.0000 0.0000 -2.8858 29.0733 20.3376 10.9366 -7.1250 0.0000 -0.0000 0.6132 52.9602 0.1201 0.0000 0.0000 0.0000 87.2434 1.6112 13.2888 -17.5435 27.5687 -4.3359 0.0000 -0.0000 -1.1349 -13.2727 6.6820 -1.5722 7.1250 -0.0000 -0.0000 9.8993 -23.1387 5.2897
-0.1712 18.0712 -31.1326 -7.0521 -5.6378 -1.5467 0.0000 0.0000 0.0000 -9.0524 -7.9307 -27.2119 7.3197 15.5953 50.0735 0.4329 -3.0889 -11.7517 0.1865 -2.7814 -7.6709 0.0000 0.0000 0.0000 34.2323 8.5373 -3.4934 -2.2623 -9.3922 27.0301 -0.9850 4.9022 -17.7572 -0.0638 -1.6294 4.4825 5.1327 1.5354 8.8657 2.3839 2.5742 2.1446 -0.6910 1.2536 -2.6243 -0.5712 -3.2444 -14.1861 0.9670 -4.4602 14.5202 -0.0383 -2.0932 6.8007 0.0000 0.0000 0.0000 -84.6173 7.9341 26.9614 17.4280 -27.4186 -4.2826 -0.0000 0.0000 -2.1161 28.1775 24.2963 12.4300 -7.1250 0.0000 -0.0000 -1.3493 57.0931 -0.3998 0.0000 0.0000 0.0000 87.5418 1.6599 13.3071 -17.6270 27.6770 -4.3746 0.0000 -0.0000 -0.9457 -15.9305 13.9170 -3.9273 7.1250 -0.0000 -0.0000 7.8566 -15.6206 5.5036
-0.1670 18.0687 -30.9880 -7.0035 -5.1640 -1.2494 0.0000 0.0000 0.0000 -8.9771 -8.8000 -27.7229 6.8278 15.1852 48.2202 0.4411 -2.3273 -11.9591 0.1903 -2.8096 -7.7490 0.0000 0.0000 0.0000 34.2014 8.3933 -3.2050 -2.2133 -9.2969 26.7285 -1.0083 4.3251 -18.0246 -0.0848 -1.8778 5.1682 5.3172 1.6028 8.3897 2.0332 2.5739 3.3445 -1.1134 1.3064 -1.0897 0.4963 -3.3146 -19.7019 0.5596 -4.7833 15.9353 -0.4950 -2.1717 8.1809 -0.0000 -0.0000 0.0000 -84.0587 5.2385 29.6547 19.4252 -29.9436 -5.2414 -0.0000 0.0000 -2.6717 38.9782 55.6931 33.7582 -7.1250 0.0000 -0.0000 -114.7286 -85.6422 118.7587 -0.0000 -0.0000 0.0000 88.0305 4.8674 12.5869 -17.4890 27.4980 -4.3107 0.0000 -0.0000 -0.5232 -16.9216 18.2927 -5.4547 7.1250 -0.0000 -0.0000 7.3003 -11.0376 5.8162
-0.1666 18.0655 -30.8569 -7.1319 -5.9606 -1.2450 0.0000 0.0000 0.0000 -8.7239 -8.4797 -27.8557 6.3353 14.7456 46.3130 0.4636 -1.3990 -12.4526 0.1933 -2.8316 -7.8101 0.0000 0.0000 0.0000 34.3564 8.4091 -2.4103 -2.1627 -9.1971 26.4140 -1.0096 4.6064 -18.0091 -0.1014 -2.0537 5.6542 5.2389 1.9171 8.9294 2.1355 3.0339 3.1463 -1.0313 1.5198 -1.5769 0.4817 -3.3679 -19.6734 0.2777 -4.7958 15.9947 -0.5885 -2.2080 8.1882 -0.0000 -0.0000 0.0000 -84.3344 5.2889 27.3596 17.0154 -26.8781 -4.0943 -0.0000 0.0000 -2.0230 28.3031 26.6345 13.5724 -7.1250 0.0000 -0.0000 -2.0116 59.6349 -0.7190 -0.0000 -0.0000 0.0000 87.8021 4.7422 12.7957 -17.6186 27.6660 -4.3707 0.0000 -0.0000 -0.8279 -16.6492 19.8203 -5.7899 7.1250 -0.0000 -0.0000 7.5433 -9.5062 6.2498
